<svg width="29" height="29" viewBox="0 0 29 29" fill="none" xmlns="http://www.w3.org/2000/svg">
<path d="M28.6832 27.2542L28.6832 27.2542L20.2589 18.8299L20.133 18.704L20.2451 18.5656C21.8157 16.6266 22.7606 14.1623 22.7606 11.4792C22.7606 5.25881 17.6996 0.197727 11.4792 0.197727C5.25875 0.197727 0.197727 5.25881 0.197727 11.4792C0.197727 17.6996 5.25881 22.7607 11.4792 22.7607C14.1623 22.7607 16.6266 21.8157 18.5656 20.2451L18.704 20.133L18.8299 20.2589L27.2542 28.6832C27.2542 28.6832 27.2542 28.6832 27.2542 28.6832C27.413 28.8419 27.6702 28.8419 27.829 28.6832L27.8291 28.6832M28.6832 27.2542L27.9689 28.8231L27.8291 28.6832M28.6832 27.2542C28.8419 27.4129 28.8419 27.6702 28.6832 27.829L28.6832 27.2542ZM27.8291 28.6832L28.6832 27.829L27.8291 28.6832ZM2.21896 11.4792C2.21896 16.5858 6.37265 20.7395 11.4792 20.7395C16.5858 20.7395 20.7395 16.5858 20.7395 11.4792C20.7395 6.37265 16.5858 2.21896 11.4792 2.21896C6.37265 2.21896 2.21896 6.37265 2.21896 11.4792Z" fill="white" stroke="black" stroke-width="0.395455"/>
</svg>
